<mxfile host="Electron" modified="2023-12-05T22:57:56.011Z" agent="Mozilla/5.0 (Macintosh; Intel Mac OS X 10_15_7) AppleWebKit/537.36 (KHTML, like Gecko) draw.io/22.1.2 Chrome/114.0.5735.289 Electron/25.9.4 Safari/537.36" etag="_Gb3WvS26vgTknEXRoHD" version="22.1.2" type="device">
  <diagram name="Page-1" id="feId3qYxikT-9Foy4yp1">
    <mxGraphModel dx="1886" dy="1288" grid="0" gridSize="10" guides="1" tooltips="1" connect="1" arrows="1" fold="1" page="0" pageScale="1" pageWidth="827" pageHeight="1169" math="0" shadow="0">
      <root>
        <mxCell id="0" />
        <object label="Botones" id="RFsFdrk8VvFbr6w06xah-31">
          <mxCell style="" parent="0" />
        </object>
        <UserObject label="Gestión conejo" link="data:action/json,{&quot;actions&quot;:[{&quot;toggle&quot;:{&quot;cells&quot;:[&quot;RFsFdrk8VvFbr6w06xah-87&quot;]}}]}" id="RFsFdrk8VvFbr6w06xah-121">
          <mxCell style="rounded=0;whiteSpace=wrap;html=1;" parent="RFsFdrk8VvFbr6w06xah-31" vertex="1">
            <mxGeometry x="610" y="720" width="80" height="40" as="geometry" />
          </mxCell>
        </UserObject>
        <UserObject label="Gestión ganado" link="data:action/json,{&quot;actions&quot;:[{&quot;toggle&quot;:{&quot;cells&quot;:[&quot;RFsFdrk8VvFbr6w06xah-105&quot;]}}]}" id="RFsFdrk8VvFbr6w06xah-122">
          <mxCell style="rounded=0;whiteSpace=wrap;html=1;" parent="RFsFdrk8VvFbr6w06xah-31" vertex="1">
            <mxGeometry x="710" y="720" width="80" height="40" as="geometry" />
          </mxCell>
        </UserObject>
        <UserObject label="Gestión lince" link="data:action/json,{&quot;actions&quot;:[{&quot;toggle&quot;:{&quot;cells&quot;:[&quot;RFsFdrk8VvFbr6w06xah-99&quot;]}}]}" id="RFsFdrk8VvFbr6w06xah-123">
          <mxCell style="rounded=0;whiteSpace=wrap;html=1;" parent="RFsFdrk8VvFbr6w06xah-31" vertex="1">
            <mxGeometry x="810" y="720" width="80" height="40" as="geometry" />
          </mxCell>
        </UserObject>
        <UserObject label="Disfunciones actuales" link="data:action/json,{&quot;actions&quot;:[{&quot;toggle&quot;:{&quot;cells&quot;:[&quot;RFsFdrk8VvFbr6w06xah-116&quot;]}}]}" id="RFsFdrk8VvFbr6w06xah-131">
          <mxCell style="rounded=0;whiteSpace=wrap;html=1;" parent="RFsFdrk8VvFbr6w06xah-31" vertex="1">
            <mxGeometry x="920" y="720" width="80" height="40" as="geometry" />
          </mxCell>
        </UserObject>
        <UserObject label="Disfunciones previstas" link="data:action/json,{&quot;actions&quot;:[{&quot;toggle&quot;:{&quot;cells&quot;:[&quot;RFsFdrk8VvFbr6w06xah-132&quot;]}}]}" id="RFsFdrk8VvFbr6w06xah-145">
          <mxCell style="rounded=0;whiteSpace=wrap;html=1;" parent="RFsFdrk8VvFbr6w06xah-31" vertex="1">
            <mxGeometry x="1020" y="720" width="80" height="40" as="geometry" />
          </mxCell>
        </UserObject>
        <UserObject label="Escenario &quot;todo sigue igual&quot;" link="data:action/json,{&quot;actions&quot;:[{&quot;toggle&quot;:{&quot;cells&quot;:[&quot;RFsFdrk8VvFbr6w06xah-147&quot;]}}]}" id="RFsFdrk8VvFbr6w06xah-155">
          <mxCell style="rounded=0;whiteSpace=wrap;html=1;" parent="RFsFdrk8VvFbr6w06xah-31" vertex="1">
            <mxGeometry x="1120" y="720" width="100" height="40" as="geometry" />
          </mxCell>
        </UserObject>
        <UserObject label="Estructura del ecosistema" link="data:action/json,{&quot;actions&quot;:[{&quot;toggle&quot;:{&quot;cells&quot;:[&quot;RFsFdrk8VvFbr6w06xah-12&quot;]}}]}" id="RFsFdrk8VvFbr6w06xah-32">
          <mxCell style="rounded=0;whiteSpace=wrap;html=1;" parent="RFsFdrk8VvFbr6w06xah-31" vertex="1">
            <mxGeometry x="220" y="720" width="80" height="40" as="geometry" />
          </mxCell>
        </UserObject>
        <UserObject label="Flujo de energía" link="data:action/json,{&quot;actions&quot;:[{&quot;toggle&quot;:{&quot;cells&quot;:[&quot;RFsFdrk8VvFbr6w06xah-45&quot;]}}]}" id="RFsFdrk8VvFbr6w06xah-118">
          <mxCell style="rounded=0;whiteSpace=wrap;html=1;" parent="RFsFdrk8VvFbr6w06xah-31" vertex="1">
            <mxGeometry x="404" y="720" width="80" height="40" as="geometry" />
          </mxCell>
        </UserObject>
        <UserObject label="Servicios ecosistémicos" link="data:action/json,{&quot;actions&quot;:[{&quot;toggle&quot;:{&quot;cells&quot;:[&quot;RFsFdrk8VvFbr6w06xah-75&quot;]}}]}" id="RFsFdrk8VvFbr6w06xah-120">
          <mxCell style="rounded=0;whiteSpace=wrap;html=1;" parent="RFsFdrk8VvFbr6w06xah-31" vertex="1">
            <mxGeometry x="500" y="720" width="80" height="40" as="geometry" />
          </mxCell>
        </UserObject>
        <UserObject label="Contexto abiótico" link="data:action/json,{&quot;actions&quot;:[{&quot;toggle&quot;:{&quot;cells&quot;:[&quot;RFsFdrk8VvFbr6w06xah-46&quot;]}}]}" id="RFsFdrk8VvFbr6w06xah-119">
          <mxCell style="rounded=0;whiteSpace=wrap;html=1;" parent="RFsFdrk8VvFbr6w06xah-31" vertex="1">
            <mxGeometry x="120" y="720" width="80" height="40" as="geometry" />
          </mxCell>
        </UserObject>
        <mxCell id="LxmWcol8e5a61zut5jW5-2" value="Gestión" style="text;html=1;align=center;verticalAlign=middle;resizable=0;points=[];autosize=1;strokeColor=none;fillColor=none;fontSize=19;fontStyle=1" parent="RFsFdrk8VvFbr6w06xah-31" vertex="1">
          <mxGeometry x="600" y="670" width="90" height="40" as="geometry" />
        </mxCell>
        <mxCell id="LxmWcol8e5a61zut5jW5-3" value="Estructura - función - servicios" style="text;html=1;align=center;verticalAlign=middle;resizable=0;points=[];autosize=1;strokeColor=none;fillColor=none;fontSize=19;fontStyle=1" parent="RFsFdrk8VvFbr6w06xah-31" vertex="1">
          <mxGeometry x="110" y="670" width="300" height="40" as="geometry" />
        </mxCell>
        <mxCell id="LxmWcol8e5a61zut5jW5-4" value="Disfunciones" style="text;html=1;align=center;verticalAlign=middle;resizable=0;points=[];autosize=1;strokeColor=none;fillColor=none;fontSize=19;fontStyle=1" parent="RFsFdrk8VvFbr6w06xah-31" vertex="1">
          <mxGeometry x="910" y="670" width="140" height="40" as="geometry" />
        </mxCell>
        <UserObject label="Flujos de materiales" link="data:action/json,{&quot;actions&quot;:[{&quot;toggle&quot;:{&quot;cells&quot;:[&quot;1&quot;]}}]}" id="LxmWcol8e5a61zut5jW5-5">
          <mxCell style="rounded=0;whiteSpace=wrap;html=1;" parent="RFsFdrk8VvFbr6w06xah-31" vertex="1">
            <mxGeometry x="312" y="720" width="80" height="40" as="geometry" />
          </mxCell>
        </UserObject>
        <mxCell id="LxmWcol8e5a61zut5jW5-6" value="&lt;u&gt;Dehesa de encinas&lt;/u&gt;" style="text;html=1;align=center;verticalAlign=middle;resizable=0;points=[];autosize=1;strokeColor=none;fillColor=none;fontSize=30;fontStyle=1" parent="RFsFdrk8VvFbr6w06xah-31" vertex="1">
          <mxGeometry x="50" y="-40" width="290" height="50" as="geometry" />
        </mxCell>
        <mxCell id="RFsFdrk8VvFbr6w06xah-75" value="Servicios ecosistémicos" style="" parent="0" />
        <mxCell id="RFsFdrk8VvFbr6w06xah-100" value="" style="group" parent="RFsFdrk8VvFbr6w06xah-75" vertex="1" connectable="0">
          <mxGeometry x="656" y="46" width="374" height="134" as="geometry" />
        </mxCell>
        <mxCell id="RFsFdrk8VvFbr6w06xah-84" value="" style="rounded=1;whiteSpace=wrap;html=1;fillColor=#FFB570;strokeColor=none;" parent="RFsFdrk8VvFbr6w06xah-100" vertex="1">
          <mxGeometry y="4" width="370" height="130" as="geometry" />
        </mxCell>
        <mxCell id="RFsFdrk8VvFbr6w06xah-85" value="Uso recreativo" style="text;html=1;align=center;verticalAlign=middle;resizable=0;points=[];autosize=1;strokeColor=none;fillColor=none;fontStyle=1;fontColor=#663300;" parent="RFsFdrk8VvFbr6w06xah-100" vertex="1">
          <mxGeometry x="264" width="110" height="30" as="geometry" />
        </mxCell>
        <mxCell id="RFsFdrk8VvFbr6w06xah-89" value="" style="group" parent="RFsFdrk8VvFbr6w06xah-75" vertex="1" connectable="0">
          <mxGeometry x="650" y="210" width="150" height="130" as="geometry" />
        </mxCell>
        <mxCell id="RFsFdrk8VvFbr6w06xah-82" value="" style="rounded=1;whiteSpace=wrap;html=1;fillColor=#FFB570;strokeColor=none;" parent="RFsFdrk8VvFbr6w06xah-89" vertex="1">
          <mxGeometry width="129" height="130" as="geometry" />
        </mxCell>
        <mxCell id="RFsFdrk8VvFbr6w06xah-83" value="Caza" style="text;html=1;align=center;verticalAlign=middle;resizable=0;points=[];autosize=1;strokeColor=none;fillColor=none;fontStyle=1;fontColor=#663300;" parent="RFsFdrk8VvFbr6w06xah-89" vertex="1">
          <mxGeometry y="100" width="50" height="30" as="geometry" />
        </mxCell>
        <mxCell id="RFsFdrk8VvFbr6w06xah-90" value="" style="group" parent="RFsFdrk8VvFbr6w06xah-75" vertex="1" connectable="0">
          <mxGeometry x="190" y="210" width="370" height="130" as="geometry" />
        </mxCell>
        <mxCell id="RFsFdrk8VvFbr6w06xah-78" value="" style="rounded=1;whiteSpace=wrap;html=1;fillColor=#FFB570;strokeColor=none;" parent="RFsFdrk8VvFbr6w06xah-90" vertex="1">
          <mxGeometry width="370" height="130" as="geometry" />
        </mxCell>
        <mxCell id="RFsFdrk8VvFbr6w06xah-79" value="Provisión de carne" style="text;html=1;align=center;verticalAlign=middle;resizable=0;points=[];autosize=1;strokeColor=none;fillColor=none;fontStyle=1;fontColor=#663300;" parent="RFsFdrk8VvFbr6w06xah-90" vertex="1">
          <mxGeometry x="60" width="130" height="30" as="geometry" />
        </mxCell>
        <mxCell id="RFsFdrk8VvFbr6w06xah-91" value="" style="group" parent="RFsFdrk8VvFbr6w06xah-75" vertex="1" connectable="0">
          <mxGeometry x="400" y="490" width="256" height="110" as="geometry" />
        </mxCell>
        <mxCell id="RFsFdrk8VvFbr6w06xah-80" value="" style="rounded=1;whiteSpace=wrap;html=1;fillColor=#FFB570;strokeColor=none;" parent="RFsFdrk8VvFbr6w06xah-91" vertex="1">
          <mxGeometry width="256" height="90" as="geometry" />
        </mxCell>
        <mxCell id="RFsFdrk8VvFbr6w06xah-81" value="Creación y mantenimiento de suelo fértil" style="text;html=1;align=center;verticalAlign=middle;resizable=0;points=[];autosize=1;strokeColor=none;fillColor=none;fontStyle=1;fontColor=#663300;" parent="RFsFdrk8VvFbr6w06xah-91" vertex="1">
          <mxGeometry x="3" y="60" width="250" height="30" as="geometry" />
        </mxCell>
        <object label="Contexto abiótico" id="RFsFdrk8VvFbr6w06xah-46">
          <mxCell style="" parent="0" />
        </object>
        <mxCell id="RFsFdrk8VvFbr6w06xah-47" value="&lt;b&gt;Precipitación&lt;/b&gt;" style="ellipse;shape=cloud;whiteSpace=wrap;html=1;fillColor=#dae8fc;strokeColor=#6c8ebf;" parent="RFsFdrk8VvFbr6w06xah-46" vertex="1">
          <mxGeometry x="1050" y="443.33" width="100" height="66.67" as="geometry" />
        </mxCell>
        <mxCell id="RFsFdrk8VvFbr6w06xah-58" value="" style="group" parent="RFsFdrk8VvFbr6w06xah-46" vertex="1" connectable="0">
          <mxGeometry x="960" y="410" width="41" height="106.46" as="geometry" />
        </mxCell>
        <mxCell id="RFsFdrk8VvFbr6w06xah-51" value="Temperatura" style="ellipse;whiteSpace=wrap;html=1;aspect=fixed;strokeColor=none;fillColor=#f8cecc;" parent="RFsFdrk8VvFbr6w06xah-58" vertex="1">
          <mxGeometry y="65.46298136645963" width="40.99701863354037" height="40.99701863354037" as="geometry" />
        </mxCell>
        <mxCell id="RFsFdrk8VvFbr6w06xah-52" value="" style="rounded=1;whiteSpace=wrap;html=1;rotation=-90;strokeColor=none;fillColor=#f8cecc;" parent="RFsFdrk8VvFbr6w06xah-58" vertex="1">
          <mxGeometry x="-19.177419354838708" y="33.06211180124223" width="79.35483870967741" height="13.224844720496893" as="geometry" />
        </mxCell>
        <mxCell id="RFsFdrk8VvFbr6w06xah-53" value="" style="endArrow=none;html=1;rounded=0;strokeColor=#CC0000;strokeWidth=2;" parent="RFsFdrk8VvFbr6w06xah-58" edge="1">
          <mxGeometry width="50" height="50" relative="1" as="geometry">
            <mxPoint x="7.274193548387096" y="59.51180124223602" as="sourcePoint" />
            <mxPoint x="20.5" y="59.51180124223602" as="targetPoint" />
          </mxGeometry>
        </mxCell>
        <mxCell id="RFsFdrk8VvFbr6w06xah-54" value="" style="endArrow=none;html=1;rounded=0;strokeColor=#CC0000;strokeWidth=2;" parent="RFsFdrk8VvFbr6w06xah-58" edge="1">
          <mxGeometry width="50" height="50" relative="1" as="geometry">
            <mxPoint x="7.274193548387096" y="48.27068322981366" as="sourcePoint" />
            <mxPoint x="20.5" y="48.27068322981366" as="targetPoint" />
          </mxGeometry>
        </mxCell>
        <mxCell id="RFsFdrk8VvFbr6w06xah-55" value="" style="endArrow=none;html=1;rounded=0;strokeColor=#CC0000;strokeWidth=2;" parent="RFsFdrk8VvFbr6w06xah-58" edge="1">
          <mxGeometry width="50" height="50" relative="1" as="geometry">
            <mxPoint x="7.274193548387096" y="37.69080745341615" as="sourcePoint" />
            <mxPoint x="20.5" y="37.69080745341615" as="targetPoint" />
          </mxGeometry>
        </mxCell>
        <mxCell id="RFsFdrk8VvFbr6w06xah-56" value="" style="endArrow=none;html=1;rounded=0;strokeColor=#CC0000;strokeWidth=2;" parent="RFsFdrk8VvFbr6w06xah-58" edge="1">
          <mxGeometry width="50" height="50" relative="1" as="geometry">
            <mxPoint x="7.274193548387096" y="26.449689440993787" as="sourcePoint" />
            <mxPoint x="20.5" y="26.449689440993787" as="targetPoint" />
          </mxGeometry>
        </mxCell>
        <mxCell id="RFsFdrk8VvFbr6w06xah-57" value="" style="endArrow=none;html=1;rounded=0;strokeColor=#CC0000;strokeWidth=2;" parent="RFsFdrk8VvFbr6w06xah-58" edge="1">
          <mxGeometry width="50" height="50" relative="1" as="geometry">
            <mxPoint x="7.274193548387096" y="14.547329192546583" as="sourcePoint" />
            <mxPoint x="20.5" y="14.547329192546583" as="targetPoint" />
          </mxGeometry>
        </mxCell>
        <object label="Flujo de energía" id="RFsFdrk8VvFbr6w06xah-45">
          <mxCell style="" parent="0" />
        </object>
        <mxCell id="RFsFdrk8VvFbr6w06xah-43" style="edgeStyle=orthogonalEdgeStyle;rounded=0;orthogonalLoop=1;jettySize=auto;html=1;entryX=-0.062;entryY=0.746;entryDx=0;entryDy=0;entryPerimeter=0;shape=arrow;strokeColor=none;fillColor=#FFD966;exitX=0.741;exitY=0.277;exitDx=0;exitDy=0;exitPerimeter=0;" parent="RFsFdrk8VvFbr6w06xah-45" source="RFsFdrk8VvFbr6w06xah-40" target="RFsFdrk8VvFbr6w06xah-17" edge="1">
          <mxGeometry relative="1" as="geometry" />
        </mxCell>
        <mxCell id="RFsFdrk8VvFbr6w06xah-44" style="edgeStyle=orthogonalEdgeStyle;rounded=0;orthogonalLoop=1;jettySize=auto;html=1;entryX=0;entryY=1;entryDx=0;entryDy=0;shape=arrow;strokeColor=none;fillColor=#FFD966;exitX=0.941;exitY=0.477;exitDx=0;exitDy=0;exitPerimeter=0;" parent="RFsFdrk8VvFbr6w06xah-45" source="RFsFdrk8VvFbr6w06xah-40" target="RFsFdrk8VvFbr6w06xah-18" edge="1">
          <mxGeometry relative="1" as="geometry">
            <mxPoint x="193" y="571" as="sourcePoint" />
            <mxPoint x="300" y="390" as="targetPoint" />
          </mxGeometry>
        </mxCell>
        <mxCell id="RFsFdrk8VvFbr6w06xah-42" value="" style="group" parent="RFsFdrk8VvFbr6w06xah-45" vertex="1" connectable="0">
          <mxGeometry x="80" y="510" width="110" height="110" as="geometry" />
        </mxCell>
        <mxCell id="RFsFdrk8VvFbr6w06xah-40" value="" style="html=1;verticalLabelPosition=bottom;align=center;labelBackgroundColor=#ffffff;verticalAlign=top;strokeWidth=2;strokeColor=#666600;shadow=0;dashed=0;shape=mxgraph.ios7.icons.sun;pointerEvents=1;fillColor=#FFD966;" parent="RFsFdrk8VvFbr6w06xah-42" vertex="1">
          <mxGeometry width="110" height="110" as="geometry" />
        </mxCell>
        <mxCell id="RFsFdrk8VvFbr6w06xah-41" value="El Sol :)" style="text;html=1;align=center;verticalAlign=middle;resizable=0;points=[];autosize=1;strokeColor=none;fillColor=none;fontSize=9;fontStyle=1;fontColor=#333300;" parent="RFsFdrk8VvFbr6w06xah-42" vertex="1">
          <mxGeometry x="25" y="45" width="60" height="20" as="geometry" />
        </mxCell>
        <mxCell id="RFsFdrk8VvFbr6w06xah-115" style="edgeStyle=orthogonalEdgeStyle;rounded=0;orthogonalLoop=1;jettySize=auto;html=1;entryX=0.169;entryY=1.063;entryDx=0;entryDy=0;entryPerimeter=0;shape=arrow;strokeColor=none;fillColor=#FFD966;exitX=0.505;exitY=0.268;exitDx=0;exitDy=0;exitPerimeter=0;" parent="RFsFdrk8VvFbr6w06xah-45" source="RFsFdrk8VvFbr6w06xah-40" target="RFsFdrk8VvFbr6w06xah-110" edge="1">
          <mxGeometry relative="1" as="geometry">
            <mxPoint x="200" y="575" as="sourcePoint" />
            <mxPoint x="300" y="390" as="targetPoint" />
          </mxGeometry>
        </mxCell>
        <mxCell id="1" value="Flujos de materiales" style="" parent="0" />
        <mxCell id="RQ69XsojIBIWIG4yezn0-28" style="edgeStyle=orthogonalEdgeStyle;rounded=0;orthogonalLoop=1;jettySize=auto;html=1;entryX=0.5;entryY=1;entryDx=0;entryDy=0;shape=flexArrow;fillColor=#C6F0B1;strokeColor=#FFFFFF;exitX=0.5;exitY=0;exitDx=0;exitDy=0;strokeWidth=1;endSize=6;startSize=3;width=3;" parent="1" source="RFsFdrk8VvFbr6w06xah-16" target="RFsFdrk8VvFbr6w06xah-17" edge="1">
          <mxGeometry relative="1" as="geometry">
            <mxPoint x="334" y="470" as="sourcePoint" />
            <mxPoint x="330" y="380" as="targetPoint" />
          </mxGeometry>
        </mxCell>
        <mxCell id="RQ69XsojIBIWIG4yezn0-29" style="edgeStyle=orthogonalEdgeStyle;rounded=0;orthogonalLoop=1;jettySize=auto;html=1;entryX=0.5;entryY=1;entryDx=0;entryDy=0;shape=flexArrow;fillColor=#C6F0B1;strokeColor=#FFFFFF;exitX=1;exitY=0.5;exitDx=0;exitDy=0;" parent="1" source="RFsFdrk8VvFbr6w06xah-16" target="RFsFdrk8VvFbr6w06xah-18" edge="1">
          <mxGeometry relative="1" as="geometry">
            <mxPoint x="414" y="470" as="sourcePoint" />
            <mxPoint x="490" y="380" as="targetPoint" />
          </mxGeometry>
        </mxCell>
        <mxCell id="RFsFdrk8VvFbr6w06xah-6" style="edgeStyle=orthogonalEdgeStyle;rounded=0;orthogonalLoop=1;jettySize=auto;html=1;entryX=0;entryY=0.5;entryDx=0;entryDy=0;shape=arrow;fillColor=#C6F0B1;strokeColor=#FFFFFF;exitX=0.5;exitY=1;exitDx=0;exitDy=0;" parent="1" source="RFsFdrk8VvFbr6w06xah-18" target="RFsFdrk8VvFbr6w06xah-28" edge="1">
          <mxGeometry relative="1" as="geometry">
            <mxPoint x="370" y="360" as="sourcePoint" />
            <mxPoint x="740" y="480" as="targetPoint" />
          </mxGeometry>
        </mxCell>
        <mxCell id="RQ69XsojIBIWIG4yezn0-37" style="edgeStyle=orthogonalEdgeStyle;rounded=0;orthogonalLoop=1;jettySize=auto;html=1;shape=flexArrow;endWidth=22.687277051129605;endSize=9.068965517241379;width=33.10344827586207;fillColor=#C6F0B1;strokeColor=#FFFFFF;exitX=0.5;exitY=0;exitDx=0;exitDy=0;entryX=0.5;entryY=1;entryDx=0;entryDy=0;" parent="1" source="RFsFdrk8VvFbr6w06xah-18" target="RFsFdrk8VvFbr6w06xah-20" edge="1">
          <mxGeometry relative="1" as="geometry">
            <mxPoint x="490" y="340" as="sourcePoint" />
            <mxPoint x="490" y="280" as="targetPoint" />
          </mxGeometry>
        </mxCell>
        <mxCell id="RFsFdrk8VvFbr6w06xah-5" style="edgeStyle=orthogonalEdgeStyle;rounded=0;orthogonalLoop=1;jettySize=auto;html=1;entryX=0;entryY=0;entryDx=0;entryDy=0;shape=arrow;fillColor=#C6F0B1;strokeColor=#FFFFFF;exitX=1;exitY=1;exitDx=0;exitDy=0;" parent="1" source="RFsFdrk8VvFbr6w06xah-18" target="RFsFdrk8VvFbr6w06xah-28" edge="1">
          <mxGeometry relative="1" as="geometry">
            <mxPoint x="530" y="360" as="sourcePoint" />
            <mxPoint x="800" y="460" as="targetPoint" />
          </mxGeometry>
        </mxCell>
        <mxCell id="RQ69XsojIBIWIG4yezn0-33" style="edgeStyle=orthogonalEdgeStyle;rounded=0;orthogonalLoop=1;jettySize=auto;html=1;entryX=0.5;entryY=1;entryDx=0;entryDy=0;exitX=0.5;exitY=0;exitDx=0;exitDy=0;shape=flexArrow;width=27.586206896551726;endSize=8.60689655172414;endWidth=20.975029726516052;fillColor=#C6F0B1;strokeColor=#FFFFFF;" parent="1" source="RFsFdrk8VvFbr6w06xah-20" target="RFsFdrk8VvFbr6w06xah-24" edge="1">
          <mxGeometry relative="1" as="geometry">
            <mxPoint x="490" y="240" as="sourcePoint" />
            <mxPoint x="365" y="130" as="targetPoint" />
            <Array as="points">
              <mxPoint x="500" y="190" />
              <mxPoint x="365" y="190" />
            </Array>
          </mxGeometry>
        </mxCell>
        <mxCell id="RQ69XsojIBIWIG4yezn0-34" style="edgeStyle=orthogonalEdgeStyle;rounded=0;orthogonalLoop=1;jettySize=auto;html=1;shape=flexArrow;entryX=1;entryY=0.5;entryDx=0;entryDy=0;width=24.137931034482758;endSize=6.475862068965518;fillColor=#C6F0B1;strokeColor=#FFFFFF;exitX=0.5;exitY=0;exitDx=0;exitDy=0;" parent="1" source="RFsFdrk8VvFbr6w06xah-21" target="RFsFdrk8VvFbr6w06xah-24" edge="1">
          <mxGeometry relative="1" as="geometry">
            <mxPoint x="400" y="110" as="targetPoint" />
            <Array as="points">
              <mxPoint x="715" y="190" />
              <mxPoint x="635" y="190" />
              <mxPoint x="635" y="110" />
            </Array>
            <mxPoint x="635" y="240" as="sourcePoint" />
          </mxGeometry>
        </mxCell>
        <mxCell id="RQ69XsojIBIWIG4yezn0-35" style="edgeStyle=orthogonalEdgeStyle;rounded=0;orthogonalLoop=1;jettySize=auto;html=1;entryX=0.5;entryY=1;entryDx=0;entryDy=0;shape=flexArrow;fillColor=#C6F0B1;strokeColor=#FFFFFF;exitX=1;exitY=0.5;exitDx=0;exitDy=0;" parent="1" source="RFsFdrk8VvFbr6w06xah-21" target="RFsFdrk8VvFbr6w06xah-23" edge="1">
          <mxGeometry relative="1" as="geometry">
            <mxPoint x="670" y="260" as="sourcePoint" />
            <mxPoint x="785" y="130" as="targetPoint" />
          </mxGeometry>
        </mxCell>
        <mxCell id="RQ69XsojIBIWIG4yezn0-36" style="edgeStyle=orthogonalEdgeStyle;rounded=0;orthogonalLoop=1;jettySize=auto;html=1;fillColor=#C6F0B1;strokeColor=#FFFFFF;flowAnimation=1;strokeWidth=1;shape=flexArrow;exitX=1;exitY=0;exitDx=0;exitDy=0;entryX=0.5;entryY=1;entryDx=0;entryDy=0;" parent="1" source="RFsFdrk8VvFbr6w06xah-21" target="RFsFdrk8VvFbr6w06xah-22" edge="1">
          <mxGeometry relative="1" as="geometry">
            <mxPoint x="635" y="240" as="sourcePoint" />
            <mxPoint x="705" y="130" as="targetPoint" />
          </mxGeometry>
        </mxCell>
        <mxCell id="RQ69XsojIBIWIG4yezn0-42" style="edgeStyle=orthogonalEdgeStyle;rounded=0;orthogonalLoop=1;jettySize=auto;html=1;shape=flexArrow;width=4.827586206896552;endSize=4.696551724137931;entryX=0.5;entryY=1;entryDx=0;entryDy=0;fillColor=#C6F0B1;strokeColor=#FFFFFF;exitX=0.5;exitY=0;exitDx=0;exitDy=0;" parent="1" source="RFsFdrk8VvFbr6w06xah-30" target="RFsFdrk8VvFbr6w06xah-29" edge="1">
          <mxGeometry relative="1" as="geometry">
            <mxPoint x="940" y="130" as="targetPoint" />
            <mxPoint x="940" y="240" as="sourcePoint" />
            <Array as="points">
              <mxPoint x="950" y="195" />
              <mxPoint x="1050" y="195" />
            </Array>
          </mxGeometry>
        </mxCell>
        <mxCell id="RFsFdrk8VvFbr6w06xah-4" style="edgeStyle=orthogonalEdgeStyle;rounded=0;orthogonalLoop=1;jettySize=auto;html=1;entryX=0.417;entryY=1.058;entryDx=0;entryDy=0;shape=arrow;fillColor=#C6F0B1;strokeColor=#FFFFFF;exitX=0.5;exitY=0;exitDx=0;exitDy=0;entryPerimeter=0;" parent="1" source="RFsFdrk8VvFbr6w06xah-21" target="RFsFdrk8VvFbr6w06xah-26" edge="1">
          <mxGeometry relative="1" as="geometry">
            <mxPoint x="635" y="240" as="sourcePoint" />
            <mxPoint x="635" y="30" as="targetPoint" />
          </mxGeometry>
        </mxCell>
        <mxCell id="RFsFdrk8VvFbr6w06xah-8" style="edgeStyle=orthogonalEdgeStyle;rounded=0;orthogonalLoop=1;jettySize=auto;html=1;shape=arrow;fillColor=#C6F0B1;strokeColor=#FFFFFF;exitX=1;exitY=0.25;exitDx=0;exitDy=0;entryX=0.354;entryY=-0.012;entryDx=0;entryDy=0;entryPerimeter=0;" parent="1" source="RFsFdrk8VvFbr6w06xah-21" target="RFsFdrk8VvFbr6w06xah-28" edge="1">
          <mxGeometry relative="1" as="geometry">
            <mxPoint x="670" y="260" as="sourcePoint" />
            <mxPoint x="750" y="460" as="targetPoint" />
            <Array as="points">
              <mxPoint x="750" y="470" />
            </Array>
          </mxGeometry>
        </mxCell>
        <mxCell id="RQ69XsojIBIWIG4yezn0-44" style="edgeStyle=orthogonalEdgeStyle;rounded=0;orthogonalLoop=1;jettySize=auto;html=1;entryX=0.5;entryY=1;entryDx=0;entryDy=0;shape=arrow;fillColor=#C6F0B1;strokeColor=#FFFFFF;exitX=0;exitY=0.5;exitDx=0;exitDy=0;" parent="1" source="RFsFdrk8VvFbr6w06xah-22" target="RFsFdrk8VvFbr6w06xah-26" edge="1">
          <mxGeometry relative="1" as="geometry">
            <mxPoint x="670" y="110" as="sourcePoint" />
            <mxPoint x="635" y="30" as="targetPoint" />
          </mxGeometry>
        </mxCell>
        <mxCell id="RQ69XsojIBIWIG4yezn0-45" style="edgeStyle=orthogonalEdgeStyle;rounded=0;orthogonalLoop=1;jettySize=auto;html=1;entryX=1;entryY=1;entryDx=0;entryDy=0;shape=arrow;fillColor=#C6F0B1;strokeColor=#FFFFFF;exitX=0.393;exitY=-0.004;exitDx=0;exitDy=0;exitPerimeter=0;" parent="1" source="RFsFdrk8VvFbr6w06xah-23" target="RFsFdrk8VvFbr6w06xah-26" edge="1">
          <mxGeometry relative="1" as="geometry">
            <Array as="points">
              <mxPoint x="785" y="100" />
              <mxPoint x="785" y="50" />
              <mxPoint x="665" y="50" />
              <mxPoint x="665" y="20" />
            </Array>
            <mxPoint x="785" y="90" as="sourcePoint" />
            <mxPoint x="665" y="30" as="targetPoint" />
          </mxGeometry>
        </mxCell>
        <mxCell id="RFsFdrk8VvFbr6w06xah-11" style="edgeStyle=orthogonalEdgeStyle;rounded=0;orthogonalLoop=1;jettySize=auto;html=1;shape=arrow;fillColor=#C6F0B1;strokeColor=#FFFFFF;entryX=0.25;entryY=0;entryDx=0;entryDy=0;exitX=0.639;exitY=0.996;exitDx=0;exitDy=0;exitPerimeter=0;" parent="1" source="RFsFdrk8VvFbr6w06xah-21" target="RFsFdrk8VvFbr6w06xah-28" edge="1">
          <mxGeometry relative="1" as="geometry">
            <mxPoint x="695" y="10" as="sourcePoint" />
            <mxPoint x="800" y="460" as="targetPoint" />
          </mxGeometry>
        </mxCell>
        <mxCell id="RQ69XsojIBIWIG4yezn0-46" style="edgeStyle=orthogonalEdgeStyle;rounded=0;orthogonalLoop=1;jettySize=auto;html=1;entryX=1;entryY=0.5;entryDx=0;entryDy=0;shape=arrow;fillColor=#C6F0B1;strokeColor=#FFFFFF;exitX=0.5;exitY=0;exitDx=0;exitDy=0;" parent="1" source="RFsFdrk8VvFbr6w06xah-29" target="RFsFdrk8VvFbr6w06xah-26" edge="1">
          <mxGeometry relative="1" as="geometry">
            <Array as="points">
              <mxPoint x="940" y="100" />
              <mxPoint x="940" y="60" />
              <mxPoint x="790" y="60" />
              <mxPoint x="790" y="10" />
              <mxPoint x="705" y="10" />
            </Array>
            <mxPoint x="940" y="90" as="sourcePoint" />
            <mxPoint x="695" y="10" as="targetPoint" />
          </mxGeometry>
        </mxCell>
        <mxCell id="RQ69XsojIBIWIG4yezn0-41" style="edgeStyle=orthogonalEdgeStyle;rounded=0;orthogonalLoop=1;jettySize=auto;html=1;entryX=1;entryY=0.5;entryDx=0;entryDy=0;shape=flexArrow;width=3.4482758620689657;endSize=5.158620689655173;fillColor=#C6F0B1;strokeColor=#FFFFFF;exitX=1;exitY=0.5;exitDx=0;exitDy=0;" parent="1" source="RFsFdrk8VvFbr6w06xah-30" target="RFsFdrk8VvFbr6w06xah-29" edge="1">
          <mxGeometry relative="1" as="geometry">
            <Array as="points">
              <mxPoint x="1140" y="270" />
              <mxPoint x="1140" y="120" />
            </Array>
            <mxPoint x="990" y="260" as="sourcePoint" />
            <mxPoint x="1000" y="110" as="targetPoint" />
          </mxGeometry>
        </mxCell>
        <mxCell id="RQ69XsojIBIWIG4yezn0-43" value="" style="edgeStyle=orthogonalEdgeStyle;rounded=0;orthogonalLoop=1;jettySize=auto;html=1;shape=flexArrow;entryX=0;entryY=1;entryDx=0;entryDy=0;fillColor=#C6F0B1;strokeColor=#FFFFFF;width=4.827586206896552;endSize=6.793103448275862;exitX=1;exitY=0.25;exitDx=0;exitDy=0;" parent="1" source="RFsFdrk8VvFbr6w06xah-21" target="RFsFdrk8VvFbr6w06xah-29" edge="1">
          <mxGeometry relative="1" as="geometry">
            <mxPoint x="880" y="110" as="targetPoint" />
            <mxPoint x="670" y="260" as="sourcePoint" />
            <Array as="points">
              <mxPoint x="830" y="260" />
              <mxPoint x="830" y="210" />
              <mxPoint x="930" y="210" />
              <mxPoint x="930" y="140" />
            </Array>
          </mxGeometry>
        </mxCell>
        <mxCell id="RFsFdrk8VvFbr6w06xah-7" style="edgeStyle=orthogonalEdgeStyle;rounded=0;orthogonalLoop=1;jettySize=auto;html=1;shape=arrow;fillColor=#C6F0B1;strokeColor=#FFFFFF;exitX=0;exitY=0;exitDx=0;exitDy=0;entryX=0.75;entryY=1;entryDx=0;entryDy=0;" parent="1" source="RFsFdrk8VvFbr6w06xah-30" target="RFsFdrk8VvFbr6w06xah-26" edge="1">
          <mxGeometry relative="1" as="geometry">
            <mxPoint x="905" y="260" as="sourcePoint" />
            <mxPoint x="670" y="30" as="targetPoint" />
            <Array as="points">
              <mxPoint x="915" y="260" />
              <mxPoint x="670" y="260" />
              <mxPoint x="670" y="40" />
            </Array>
          </mxGeometry>
        </mxCell>
        <mxCell id="RFsFdrk8VvFbr6w06xah-9" style="edgeStyle=orthogonalEdgeStyle;rounded=0;orthogonalLoop=1;jettySize=auto;html=1;entryX=0.5;entryY=0;entryDx=0;entryDy=0;shape=arrow;fillColor=#C6F0B1;strokeColor=#FFFFFF;exitX=0;exitY=0.5;exitDx=0;exitDy=0;" parent="1" source="RFsFdrk8VvFbr6w06xah-30" target="RFsFdrk8VvFbr6w06xah-28" edge="1">
          <mxGeometry relative="1" as="geometry">
            <mxPoint x="905" y="260" as="sourcePoint" />
            <mxPoint x="800" y="460" as="targetPoint" />
          </mxGeometry>
        </mxCell>
        <mxCell id="RFsFdrk8VvFbr6w06xah-33" style="edgeStyle=orthogonalEdgeStyle;rounded=0;orthogonalLoop=1;jettySize=auto;html=1;shape=flexArrow;width=26.896551724137932;endSize=7.1931034482758625;fillColor=#C6F0B1;strokeColor=#FFFFFF;exitX=0;exitY=0.5;exitDx=0;exitDy=0;entryX=0;entryY=0.5;entryDx=0;entryDy=0;" parent="1" target="RFsFdrk8VvFbr6w06xah-24" edge="1">
          <mxGeometry relative="1" as="geometry">
            <Array as="points">
              <mxPoint x="230" y="270" />
              <mxPoint x="230" y="110" />
            </Array>
            <mxPoint x="300" y="270" as="sourcePoint" />
            <mxPoint x="330" y="110" as="targetPoint" />
          </mxGeometry>
        </mxCell>
        <mxCell id="RFsFdrk8VvFbr6w06xah-36" style="edgeStyle=orthogonalEdgeStyle;rounded=0;orthogonalLoop=1;jettySize=auto;html=1;shape=flexArrow;width=5;endSize=4.808333333333334;fillColor=#C6F0B1;strokeColor=#FFFFFF;" parent="1" source="RFsFdrk8VvFbr6w06xah-17" target="RFsFdrk8VvFbr6w06xah-19" edge="1">
          <mxGeometry relative="1" as="geometry" />
        </mxCell>
        <mxCell id="RFsFdrk8VvFbr6w06xah-37" style="edgeStyle=orthogonalEdgeStyle;rounded=0;orthogonalLoop=1;jettySize=auto;html=1;entryX=0.5;entryY=1;entryDx=0;entryDy=0;shape=flexArrow;width=20.76923076923077;endSize=7.076923076923076;strokeColor=#FFFFFF;fillColor=#C6F0B1;" parent="1" source="RFsFdrk8VvFbr6w06xah-18" target="RFsFdrk8VvFbr6w06xah-21" edge="1">
          <mxGeometry relative="1" as="geometry" />
        </mxCell>
        <mxCell id="RFsFdrk8VvFbr6w06xah-38" style="edgeStyle=orthogonalEdgeStyle;rounded=0;orthogonalLoop=1;jettySize=auto;html=1;entryX=0.502;entryY=1.152;entryDx=0;entryDy=0;entryPerimeter=0;exitX=0.5;exitY=1;exitDx=0;exitDy=0;shape=flexArrow;fillColor=#C6F0B1;strokeColor=#FFFFFF;" parent="1" source="RFsFdrk8VvFbr6w06xah-28" target="RFsFdrk8VvFbr6w06xah-16" edge="1">
          <mxGeometry relative="1" as="geometry">
            <Array as="points">
              <mxPoint x="810" y="540" />
              <mxPoint x="335" y="540" />
            </Array>
          </mxGeometry>
        </mxCell>
        <mxCell id="RQ69XsojIBIWIG4yezn0-40" style="edgeStyle=orthogonalEdgeStyle;rounded=0;orthogonalLoop=1;jettySize=auto;html=1;entryX=0.5;entryY=1;entryDx=0;entryDy=0;shape=flexArrow;width=3.4482758620689657;endSize=3.6689655172413795;endWidth=14.244946492271106;fillColor=#C6F0B1;strokeColor=#FFFFFF;exitX=1;exitY=0.5;exitDx=0;exitDy=0;" parent="1" source="RFsFdrk8VvFbr6w06xah-18" target="RFsFdrk8VvFbr6w06xah-30" edge="1">
          <mxGeometry relative="1" as="geometry">
            <mxPoint x="530" y="360" as="sourcePoint" />
            <mxPoint x="940" y="280" as="targetPoint" />
            <Array as="points">
              <mxPoint x="950" y="370" />
            </Array>
          </mxGeometry>
        </mxCell>
        <mxCell id="RFsFdrk8VvFbr6w06xah-112" style="edgeStyle=orthogonalEdgeStyle;rounded=0;orthogonalLoop=1;jettySize=auto;html=1;entryX=0.5;entryY=1;entryDx=0;entryDy=0;shape=flexArrow;fillColor=#C6F0B1;strokeColor=#FFFFFF;exitX=0;exitY=0.5;exitDx=0;exitDy=0;" parent="1" source="RFsFdrk8VvFbr6w06xah-16" target="RFsFdrk8VvFbr6w06xah-110" edge="1">
          <mxGeometry relative="1" as="geometry">
            <mxPoint x="345" y="470" as="sourcePoint" />
            <mxPoint x="345" y="400" as="targetPoint" />
          </mxGeometry>
        </mxCell>
        <mxCell id="RFsFdrk8VvFbr6w06xah-111" style="edgeStyle=orthogonalEdgeStyle;rounded=0;orthogonalLoop=1;jettySize=auto;html=1;shape=flexArrow;width=5;endSize=4.808333333333334;fillColor=#C6F0B1;strokeColor=#FFFFFF;exitX=0.5;exitY=0;exitDx=0;exitDy=0;entryX=0;entryY=1;entryDx=0;entryDy=0;" parent="1" source="RFsFdrk8VvFbr6w06xah-17" target="RFsFdrk8VvFbr6w06xah-20" edge="1">
          <mxGeometry relative="1" as="geometry">
            <mxPoint x="345" y="360" as="sourcePoint" />
            <mxPoint x="490" y="300" as="targetPoint" />
            <Array as="points" />
          </mxGeometry>
        </mxCell>
        <mxCell id="RFsFdrk8VvFbr6w06xah-113" style="edgeStyle=orthogonalEdgeStyle;rounded=0;orthogonalLoop=1;jettySize=auto;html=1;shape=flexArrow;width=17.333333333333332;endSize=5.5;fillColor=#C6F0B1;strokeColor=#FFFFFF;exitX=0.5;exitY=0;exitDx=0;exitDy=0;entryX=0.186;entryY=1.004;entryDx=0;entryDy=0;endWidth=22.333333333333332;entryPerimeter=0;" parent="1" source="RFsFdrk8VvFbr6w06xah-110" target="RFsFdrk8VvFbr6w06xah-19" edge="1">
          <mxGeometry relative="1" as="geometry">
            <mxPoint x="345" y="360" as="sourcePoint" />
            <mxPoint x="475" y="300" as="targetPoint" />
            <Array as="points" />
          </mxGeometry>
        </mxCell>
        <mxCell id="RFsFdrk8VvFbr6w06xah-87" value="Gestión conejo" style="" parent="0" />
        <mxCell id="RFsFdrk8VvFbr6w06xah-95" value="" style="rounded=0;whiteSpace=wrap;html=1;fillColor=none;fontColor=#ffffff;strokeColor=#A65400;strokeWidth=7;" parent="RFsFdrk8VvFbr6w06xah-87" vertex="1">
          <mxGeometry x="680" y="250" width="70" height="40" as="geometry" />
        </mxCell>
        <mxCell id="RFsFdrk8VvFbr6w06xah-97" value="Plan técnico caza" style="text;html=1;align=left;verticalAlign=middle;resizable=0;points=[];autosize=1;strokeColor=none;fillColor=none;fontSize=10;fontStyle=1;fontColor=#A65400;" parent="RFsFdrk8VvFbr6w06xah-87" vertex="1">
          <mxGeometry x="587" y="240" width="110" height="30" as="geometry" />
        </mxCell>
        <mxCell id="RFsFdrk8VvFbr6w06xah-98" value="Siembras" style="text;html=1;align=left;verticalAlign=middle;resizable=0;points=[];autosize=1;strokeColor=none;fillColor=none;fontSize=10;fontStyle=1;fontColor=#A65400;" parent="RFsFdrk8VvFbr6w06xah-87" vertex="1">
          <mxGeometry x="408" y="340" width="70" height="30" as="geometry" />
        </mxCell>
        <mxCell id="RFsFdrk8VvFbr6w06xah-104" value="Control&lt;br&gt;depredadores" style="text;html=1;align=left;verticalAlign=middle;resizable=0;points=[];autosize=1;strokeColor=none;fillColor=none;fontSize=10;fontStyle=1;fontColor=#A65400;" parent="RFsFdrk8VvFbr6w06xah-87" vertex="1">
          <mxGeometry x="920" y="95" width="90" height="40" as="geometry" />
        </mxCell>
        <mxCell id="RFsFdrk8VvFbr6w06xah-99" value="Gestión lince" style="" parent="0" />
        <mxCell id="RFsFdrk8VvFbr6w06xah-101" value="" style="rounded=0;whiteSpace=wrap;html=1;fillColor=none;strokeWidth=5;strokeColor=#0000CC;fontColor=#0000CC;" parent="RFsFdrk8VvFbr6w06xah-99" vertex="1">
          <mxGeometry x="830" y="100" width="70" height="40" as="geometry" />
        </mxCell>
        <mxCell id="RFsFdrk8VvFbr6w06xah-103" value="Cría&lt;br&gt;cautividad" style="text;html=1;align=left;verticalAlign=middle;resizable=0;points=[];autosize=1;strokeColor=none;fillColor=none;fontSize=10;fontStyle=1;fontColor=#0000CC;" parent="RFsFdrk8VvFbr6w06xah-99" vertex="1">
          <mxGeometry x="770" y="100" width="70" height="40" as="geometry" />
        </mxCell>
        <mxCell id="RFsFdrk8VvFbr6w06xah-94" value="Repoblaciones" style="text;html=1;align=left;verticalAlign=middle;resizable=0;points=[];autosize=1;strokeColor=none;fillColor=none;fontSize=10;fontStyle=1;fontColor=#0000CC;" parent="RFsFdrk8VvFbr6w06xah-99" vertex="1">
          <mxGeometry x="588" y="256" width="90" height="30" as="geometry" />
        </mxCell>
        <mxCell id="RFsFdrk8VvFbr6w06xah-96" value="Vacunaciones" style="text;html=1;align=left;verticalAlign=middle;resizable=0;points=[];autosize=1;strokeColor=none;fillColor=none;fontSize=10;fontStyle=1;fontColor=#0000CC;" parent="RFsFdrk8VvFbr6w06xah-99" vertex="1">
          <mxGeometry x="588" y="270" width="90" height="30" as="geometry" />
        </mxCell>
        <mxCell id="RFsFdrk8VvFbr6w06xah-105" value="Gestión ganadera" style="" parent="0" />
        <mxCell id="RFsFdrk8VvFbr6w06xah-106" value="" style="rounded=0;whiteSpace=wrap;html=1;fillColor=none;strokeWidth=7;strokeColor=#94941E;fontColor=#FF33FF;" parent="RFsFdrk8VvFbr6w06xah-105" vertex="1">
          <mxGeometry x="300" y="250" width="70" height="40" as="geometry" />
        </mxCell>
        <mxCell id="RFsFdrk8VvFbr6w06xah-108" value="" style="rounded=0;whiteSpace=wrap;html=1;fillColor=none;strokeWidth=7;strokeColor=#94941E;fontColor=#FF33FF;" parent="RFsFdrk8VvFbr6w06xah-105" vertex="1">
          <mxGeometry x="465" y="247" width="70" height="46" as="geometry" />
        </mxCell>
        <mxCell id="RFsFdrk8VvFbr6w06xah-109" value="Cuidados&lt;br&gt;veterinarios" style="text;html=1;align=left;verticalAlign=middle;resizable=0;points=[];autosize=1;strokeColor=none;fillColor=none;fontSize=10;fontStyle=1;fontColor=#94941E;" parent="RFsFdrk8VvFbr6w06xah-105" vertex="1">
          <mxGeometry x="238" y="238" width="80" height="40" as="geometry" />
        </mxCell>
        <mxCell id="RFsFdrk8VvFbr6w06xah-114" value="Eliminación" style="text;html=1;align=left;verticalAlign=middle;resizable=0;points=[];autosize=1;strokeColor=none;fillColor=none;fontSize=10;fontStyle=1;fontColor=#94941E;" parent="RFsFdrk8VvFbr6w06xah-105" vertex="1">
          <mxGeometry x="232" y="345" width="80" height="30" as="geometry" />
        </mxCell>
        <mxCell id="RFsFdrk8VvFbr6w06xah-116" value="Disfunciones actuales" parent="0" />
        <mxCell id="RFsFdrk8VvFbr6w06xah-125" value="Dificultad reclutamiento" style="shape=step;perimeter=stepPerimeter;whiteSpace=wrap;html=1;fixedSize=1;fontStyle=1;fontColor=#FFFFFF;strokeColor=none;fillColor=#FF0000;" parent="RFsFdrk8VvFbr6w06xah-116" vertex="1">
          <mxGeometry x="30" y="340" width="120" height="50" as="geometry" />
        </mxCell>
        <mxCell id="RFsFdrk8VvFbr6w06xah-126" value="Pérdida diversidad" style="shape=step;perimeter=stepPerimeter;whiteSpace=wrap;html=1;fixedSize=1;fontStyle=1;fontColor=#FFFFFF;strokeColor=none;fillColor=#FF0000;" parent="RFsFdrk8VvFbr6w06xah-116" vertex="1">
          <mxGeometry x="230" y="390" width="100" height="50" as="geometry" />
        </mxCell>
        <mxCell id="RFsFdrk8VvFbr6w06xah-127" value="Impacto de antiparasitarios ganaderos" style="shape=step;perimeter=stepPerimeter;whiteSpace=wrap;html=1;fixedSize=1;fontStyle=1;fontColor=#FFFFFF;strokeColor=none;fillColor=#FF0000;" parent="RFsFdrk8VvFbr6w06xah-116" vertex="1">
          <mxGeometry x="630" y="470" width="120" height="50" as="geometry" />
        </mxCell>
        <mxCell id="RFsFdrk8VvFbr6w06xah-128" value="Población muy pequeña" style="shape=step;perimeter=stepPerimeter;whiteSpace=wrap;html=1;fixedSize=1;fontStyle=1;fontColor=#FFFFFF;strokeColor=none;fillColor=#FF0000;" parent="RFsFdrk8VvFbr6w06xah-116" vertex="1">
          <mxGeometry x="740" y="143" width="120" height="50" as="geometry" />
        </mxCell>
        <mxCell id="RFsFdrk8VvFbr6w06xah-129" value="Población muy pequeña" style="shape=step;perimeter=stepPerimeter;whiteSpace=wrap;html=1;fixedSize=1;fontStyle=1;fontColor=#FFFFFF;strokeColor=none;fillColor=#FF0000;" parent="RFsFdrk8VvFbr6w06xah-116" vertex="1">
          <mxGeometry x="570" y="121" width="120" height="50" as="geometry" />
        </mxCell>
        <mxCell id="RFsFdrk8VvFbr6w06xah-132" value="Disfunciones previstas" parent="0" />
        <mxCell id="RFsFdrk8VvFbr6w06xah-133" value="" style="shape=flexArrow;endArrow=classic;html=1;rounded=0;fillColor=#C7C700;strokeColor=#666600;strokeWidth=3;" parent="RFsFdrk8VvFbr6w06xah-132" edge="1">
          <mxGeometry width="50" height="50" relative="1" as="geometry">
            <mxPoint x="1020" y="485" as="sourcePoint" />
            <mxPoint x="1020" y="425" as="targetPoint" />
          </mxGeometry>
        </mxCell>
        <mxCell id="RFsFdrk8VvFbr6w06xah-134" value="" style="shape=flexArrow;endArrow=classic;html=1;rounded=0;fillColor=#C7C700;strokeColor=#666600;strokeWidth=3;" parent="RFsFdrk8VvFbr6w06xah-132" edge="1">
          <mxGeometry width="50" height="50" relative="1" as="geometry">
            <mxPoint x="1170" y="430" as="sourcePoint" />
            <mxPoint x="1170" y="490" as="targetPoint" />
          </mxGeometry>
        </mxCell>
        <mxCell id="RFsFdrk8VvFbr6w06xah-136" value="Reducción productividad" style="shape=step;perimeter=stepPerimeter;whiteSpace=wrap;html=1;fixedSize=1;fontStyle=1;fontColor=#FFFFFF;strokeColor=#666600;fillColor=#C7C700;strokeWidth=2;" parent="RFsFdrk8VvFbr6w06xah-132" vertex="1">
          <mxGeometry x="377" y="370" width="110" height="48" as="geometry" />
        </mxCell>
        <mxCell id="RFsFdrk8VvFbr6w06xah-137" value="Reducción poblaciones" style="shape=step;perimeter=stepPerimeter;whiteSpace=wrap;html=1;fixedSize=1;fontStyle=1;fontColor=#FFFFFF;strokeColor=#666600;fillColor=#C7C700;strokeWidth=2;" parent="RFsFdrk8VvFbr6w06xah-132" vertex="1">
          <mxGeometry x="550" y="300" width="110" height="48" as="geometry" />
        </mxCell>
        <mxCell id="RFsFdrk8VvFbr6w06xah-138" value="Reducción poblaciones" style="shape=step;perimeter=stepPerimeter;whiteSpace=wrap;html=1;fixedSize=1;fontStyle=1;fontColor=#FFFFFF;strokeColor=#666600;fillColor=#C7C700;strokeWidth=2;" parent="RFsFdrk8VvFbr6w06xah-132" vertex="1">
          <mxGeometry x="390" y="-40" width="110" height="48" as="geometry" />
        </mxCell>
        <mxCell id="RFsFdrk8VvFbr6w06xah-139" value="Reducción poblaciones" style="shape=step;perimeter=stepPerimeter;whiteSpace=wrap;html=1;fixedSize=1;fontStyle=1;fontColor=#FFFFFF;strokeColor=#666600;fillColor=#C7C700;strokeWidth=2;" parent="RFsFdrk8VvFbr6w06xah-132" vertex="1">
          <mxGeometry x="570" y="50" width="110" height="48" as="geometry" />
        </mxCell>
        <mxCell id="RFsFdrk8VvFbr6w06xah-140" value="Reducción poblaciones" style="shape=step;perimeter=stepPerimeter;whiteSpace=wrap;html=1;fixedSize=1;fontStyle=1;fontColor=#FFFFFF;strokeColor=#666600;fillColor=#C7C700;strokeWidth=2;" parent="RFsFdrk8VvFbr6w06xah-132" vertex="1">
          <mxGeometry x="740" y="50" width="110" height="48" as="geometry" />
        </mxCell>
        <mxCell id="RFsFdrk8VvFbr6w06xah-135" value="Seca" style="shape=step;perimeter=stepPerimeter;whiteSpace=wrap;html=1;fixedSize=1;fontStyle=1;fontColor=#FFFFFF;strokeColor=#666600;fillColor=#C7C700;strokeWidth=2;" parent="RFsFdrk8VvFbr6w06xah-132" vertex="1">
          <mxGeometry x="50" y="382" width="80" height="48" as="geometry" />
        </mxCell>
        <mxCell id="RFsFdrk8VvFbr6w06xah-142" value="Reducción poblaciones" style="shape=step;perimeter=stepPerimeter;whiteSpace=wrap;html=1;fixedSize=1;fontStyle=1;fontColor=#FFFFFF;strokeColor=#666600;fillColor=#C7C700;strokeWidth=2;" parent="RFsFdrk8VvFbr6w06xah-132" vertex="1">
          <mxGeometry x="910" y="130" width="110" height="48" as="geometry" />
        </mxCell>
        <mxCell id="RFsFdrk8VvFbr6w06xah-143" value="Reducción poblaciones" style="shape=step;perimeter=stepPerimeter;whiteSpace=wrap;html=1;fixedSize=1;fontStyle=1;fontColor=#FFFFFF;strokeColor=#666600;fillColor=#C7C700;strokeWidth=2;" parent="RFsFdrk8VvFbr6w06xah-132" vertex="1">
          <mxGeometry x="810" y="252" width="110" height="48" as="geometry" />
        </mxCell>
        <object label="Estructura ecosistema" id="RFsFdrk8VvFbr6w06xah-12">
          <mxCell style="" parent="0" />
        </object>
        <mxCell id="RFsFdrk8VvFbr6w06xah-16" value="Nutrientes en el suelo" style="rounded=0;whiteSpace=wrap;html=1;strokeColor=none;fillColor=#B266FF;fontStyle=1;fontColor=#FFFFFF;" parent="RFsFdrk8VvFbr6w06xah-12" vertex="1">
          <mxGeometry x="295" y="460" width="80" height="40" as="geometry" />
        </mxCell>
        <mxCell id="RFsFdrk8VvFbr6w06xah-17" value="Matorral" style="rounded=0;whiteSpace=wrap;html=1;strokeColor=none;fillColor=#B266FF;fontStyle=1;fontColor=#FFFFFF;" parent="RFsFdrk8VvFbr6w06xah-12" vertex="1">
          <mxGeometry x="295" y="350" width="80" height="40" as="geometry" />
        </mxCell>
        <mxCell id="RFsFdrk8VvFbr6w06xah-19" value="Ganado porcino" style="whiteSpace=wrap;html=1;strokeColor=none;fillColor=#B266FF;fontColor=#FFFFFF;fontStyle=1" parent="RFsFdrk8VvFbr6w06xah-12" vertex="1">
          <mxGeometry x="300" y="250" width="70" height="40" as="geometry" />
        </mxCell>
        <mxCell id="RFsFdrk8VvFbr6w06xah-20" value="Ganado vacuno, ovino, etc." style="whiteSpace=wrap;html=1;strokeColor=none;fillColor=#B266FF;fontStyle=1;fontColor=#FFFFFF;" parent="RFsFdrk8VvFbr6w06xah-12" vertex="1">
          <mxGeometry x="465" y="250" width="70" height="40" as="geometry" />
        </mxCell>
        <mxCell id="RFsFdrk8VvFbr6w06xah-22" value="Águila imperial" style="whiteSpace=wrap;html=1;strokeColor=none;fillColor=#B266FF;fontStyle=1;fontColor=#FFFFFF;" parent="RFsFdrk8VvFbr6w06xah-12" vertex="1">
          <mxGeometry x="680" y="100" width="70" height="40" as="geometry" />
        </mxCell>
        <mxCell id="RFsFdrk8VvFbr6w06xah-24" value="Humanos" style="whiteSpace=wrap;html=1;strokeColor=none;fillColor=#B266FF;fontStyle=1;fontColor=#FFFFFF;" parent="RFsFdrk8VvFbr6w06xah-12" vertex="1">
          <mxGeometry x="330" y="90" width="70" height="40" as="geometry" />
        </mxCell>
        <mxCell id="RFsFdrk8VvFbr6w06xah-26" value="Descomponedores vertebrados" style="rounded=0;whiteSpace=wrap;html=1;strokeColor=none;fillColor=#B266FF;fontStyle=1;fontColor=#FFFFFF;" parent="RFsFdrk8VvFbr6w06xah-12" vertex="1">
          <mxGeometry x="500" y="-30" width="120" height="40" as="geometry" />
        </mxCell>
        <mxCell id="RFsFdrk8VvFbr6w06xah-28" value="Descomponedores del suelo" style="rounded=0;whiteSpace=wrap;html=1;strokeColor=none;fillColor=#B266FF;fontStyle=1;fontColor=#FFFFFF;" parent="RFsFdrk8VvFbr6w06xah-12" vertex="1">
          <mxGeometry x="750" y="470" width="120" height="40" as="geometry" />
        </mxCell>
        <mxCell id="RFsFdrk8VvFbr6w06xah-29" value="Otros carnívoros" style="whiteSpace=wrap;html=1;strokeColor=none;fillColor=#B266FF;fontStyle=1;fontColor=#FFFFFF;" parent="RFsFdrk8VvFbr6w06xah-12" vertex="1">
          <mxGeometry x="990" y="100" width="120" height="40" as="geometry" />
        </mxCell>
        <mxCell id="RFsFdrk8VvFbr6w06xah-30" value="Otros herbívoros" style="whiteSpace=wrap;html=1;strokeColor=none;fillColor=#B266FF;fontStyle=1;fontColor=#FFFFFF;" parent="RFsFdrk8VvFbr6w06xah-12" vertex="1">
          <mxGeometry x="915" y="250" width="70" height="40" as="geometry" />
        </mxCell>
        <mxCell id="RFsFdrk8VvFbr6w06xah-18" value="Pastizal" style="rounded=0;whiteSpace=wrap;html=1;strokeColor=none;fillColor=#B266FF;fontStyle=1;fontColor=#FFFFFF;" parent="RFsFdrk8VvFbr6w06xah-12" vertex="1">
          <mxGeometry x="460" y="350" width="80" height="40" as="geometry" />
        </mxCell>
        <mxCell id="RFsFdrk8VvFbr6w06xah-23" value="Lince" style="whiteSpace=wrap;html=1;strokeColor=none;fillColor=#B266FF;fontStyle=1;fontColor=#FFFFFF;" parent="RFsFdrk8VvFbr6w06xah-12" vertex="1">
          <mxGeometry x="830" y="100" width="70" height="40" as="geometry" />
        </mxCell>
        <mxCell id="RFsFdrk8VvFbr6w06xah-110" value="Árboles" style="rounded=0;whiteSpace=wrap;html=1;strokeColor=none;fillColor=#B266FF;fontStyle=1;fontColor=#FFFFFF;" parent="RFsFdrk8VvFbr6w06xah-12" vertex="1">
          <mxGeometry x="140" y="350" width="80" height="40" as="geometry" />
        </mxCell>
        <mxCell id="RFsFdrk8VvFbr6w06xah-21" value="Conejo" style="whiteSpace=wrap;html=1;strokeColor=none;fillColor=#B266FF;fontStyle=1;fontColor=#FFFFFF;" parent="RFsFdrk8VvFbr6w06xah-12" vertex="1">
          <mxGeometry x="680" y="250" width="70" height="40" as="geometry" />
        </mxCell>
        <mxCell id="RFsFdrk8VvFbr6w06xah-147" value="Todo sigue igual" parent="0" />
        <mxCell id="RFsFdrk8VvFbr6w06xah-148" value="" style="verticalLabelPosition=bottom;verticalAlign=top;html=1;shape=mxgraph.basic.x;fillColor=#000000;" parent="RFsFdrk8VvFbr6w06xah-147" vertex="1">
          <mxGeometry x="150" y="340" width="60" height="60" as="geometry" />
        </mxCell>
        <mxCell id="RFsFdrk8VvFbr6w06xah-149" value="" style="verticalLabelPosition=bottom;verticalAlign=top;html=1;shape=mxgraph.basic.x;fillColor=#000000;" parent="RFsFdrk8VvFbr6w06xah-147" vertex="1">
          <mxGeometry x="300" y="240" width="60" height="60" as="geometry" />
        </mxCell>
        <mxCell id="RFsFdrk8VvFbr6w06xah-150" value="" style="verticalLabelPosition=bottom;verticalAlign=top;html=1;shape=mxgraph.basic.x;fillColor=#000000;" parent="RFsFdrk8VvFbr6w06xah-147" vertex="1">
          <mxGeometry x="420" y="540" width="60" height="60" as="geometry" />
        </mxCell>
        <mxCell id="RFsFdrk8VvFbr6w06xah-152" value="" style="verticalLabelPosition=bottom;verticalAlign=top;html=1;shape=mxgraph.basic.x;fillColor=#000000;" parent="RFsFdrk8VvFbr6w06xah-147" vertex="1">
          <mxGeometry x="690" y="90" width="60" height="60" as="geometry" />
        </mxCell>
        <mxCell id="RFsFdrk8VvFbr6w06xah-151" value="" style="verticalLabelPosition=bottom;verticalAlign=top;html=1;shape=mxgraph.basic.x;fillColor=#000000;" parent="RFsFdrk8VvFbr6w06xah-147" vertex="1">
          <mxGeometry x="840" y="90" width="60" height="60" as="geometry" />
        </mxCell>
      </root>
    </mxGraphModel>
  </diagram>
</mxfile>
